<svg width="122" height="40" fill="none" xmlns="http://www.w3.org/2000/svg"><path d="M7.834 39.998c-.315 0-.623-.004-.936-.011a12.988 12.988 0 01-1.934-.17 6.04 6.04 0 01-1.714-.574 5.594 5.594 0 01-1.445-1.063 5.562 5.562 0 01-1.056-1.46 6.029 6.029 0 01-.562-1.733 13.115 13.115 0 01-.172-1.96C.01 32.805 0 32.07 0 32.07V7.915s.01-.723.015-.935c.008-.656.065-1.31.171-1.958A6.064 6.064 0 01.75 3.284a5.617 5.617 0 011.05-1.462c.425-.43.915-.791 1.45-1.069A5.98 5.98 0 014.96.184C5.602.078 6.25.021 6.9.013L7.835 0H114.16l.945.013a12.69 12.69 0 011.923.17 6.103 6.103 0 011.729.573 5.82 5.82 0 012.498 2.53c.27.544.457 1.125.554 1.725.107.652.167 1.312.18 1.973.003.297.003.615.003.931.008.392.008.766.008 1.142v21.885c0 .38 0 .75-.008 1.124 0 .34 0 .652-.004.972-.012.65-.071 1.298-.177 1.939a6.053 6.053 0 01-.559 1.746 5.72 5.72 0 01-1.05 1.449 5.615 5.615 0 01-1.448 1.07 6.033 6.033 0 01-1.726.574 12.85 12.85 0 01-1.934.17 40.1 40.1 0 01-.928.012l-1.122.002-105.21-.002z" fill="#000"/><path d="M24.723 20.314c.011-.873.24-1.729.667-2.488a5.15 5.15 0 011.771-1.854 5.26 5.26 0 00-1.8-1.621 5.199 5.199 0 00-2.33-.635c-1.737-.184-3.421 1.05-4.306 1.05-.903 0-2.266-1.032-3.734-1.001-.95.03-1.874.31-2.685.81a5.533 5.533 0 00-1.942 2.042c-2.001 3.502-.509 8.648 1.408 11.478.959 1.386 2.08 2.934 3.546 2.879 1.435-.06 1.971-.925 3.703-.925 1.717 0 2.22.925 3.716.89 1.54-.025 2.51-1.392 3.435-2.791a11.516 11.516 0 001.571-3.234 4.96 4.96 0 01-2.195-1.84 5.038 5.038 0 01-.825-2.76zM21.896 11.854a5.13 5.13 0 001.154-3.65A5.112 5.112 0 0019.73 9.94a4.896 4.896 0 00-1.183 3.515 4.203 4.203 0 001.856-.412 4.248 4.248 0 001.492-1.189zM42.863 27.465h-4.897l-1.176 3.51h-2.074l4.638-12.986h2.155l4.639 12.985h-2.11l-1.175-3.51zm-4.39-1.62h3.882l-1.914-5.696h-.053l-1.915 5.696zM56.166 26.242c0 2.942-1.558 4.832-3.91 4.832a3.147 3.147 0 01-1.709-.4 3.192 3.192 0 01-1.238-1.256h-.044v4.69h-1.923v-12.6h1.861v1.575h.035a3.341 3.341 0 011.263-1.254 3.294 3.294 0 011.72-.42c2.378 0 3.945 1.9 3.945 4.833zm-1.977 0c0-1.916-.98-3.177-2.475-3.177-1.47 0-2.457 1.287-2.457 3.177 0 1.908.988 3.185 2.457 3.185 1.495 0 2.475-1.25 2.475-3.185zM66.475 26.242c0 2.942-1.558 4.832-3.909 4.832a3.148 3.148 0 01-1.709-.4 3.193 3.193 0 01-1.238-1.256h-.044v4.69h-1.923v-12.6h1.86v1.575h.036a3.34 3.34 0 011.263-1.254 3.294 3.294 0 011.72-.42c2.377 0 3.944 1.9 3.944 4.833zm-1.976 0c0-1.916-.98-3.177-2.475-3.177-1.47 0-2.458 1.287-2.458 3.177 0 1.908.989 3.185 2.458 3.185 1.495 0 2.475-1.25 2.475-3.185zM73.29 27.357c.142 1.288 1.38 2.133 3.07 2.133 1.621 0 2.787-.845 2.787-2.007 0-1.008-.703-1.611-2.368-2.025l-1.665-.405c-2.36-.576-3.455-1.691-3.455-3.5 0-2.241 1.932-3.78 4.675-3.78 2.715 0 4.576 1.539 4.64 3.78h-1.942c-.116-1.297-1.176-2.079-2.725-2.079-1.549 0-2.609.792-2.609 1.944 0 .918.677 1.458 2.333 1.871l1.416.352c2.636.63 3.731 1.7 3.731 3.6 0 2.429-1.915 3.95-4.96 3.95-2.849 0-4.773-1.485-4.897-3.834h1.968zM85.328 19.268v2.24h1.781v1.539h-1.781v5.22c0 .81.357 1.188 1.14 1.188.211-.004.422-.019.632-.045v1.53c-.352.066-.71.096-1.068.09-1.896 0-2.636-.72-2.636-2.556v-5.427h-1.362v-1.539h1.362v-2.24h1.932zM88.14 26.241c0-2.978 1.736-4.85 4.443-4.85 2.716 0 4.444 1.872 4.444 4.85 0 2.988-1.719 4.851-4.444 4.851-2.724 0-4.442-1.863-4.442-4.85zm6.928 0c0-2.043-.927-3.249-2.485-3.249-1.558 0-2.483 1.215-2.483 3.25 0 2.051.925 3.248 2.483 3.248s2.485-1.197 2.485-3.248zM98.612 21.508h1.834v1.611h.044a2.26 2.26 0 01.826-1.26 2.22 2.22 0 011.427-.45c.222 0 .443.023.659.072V23.3a2.655 2.655 0 00-.864-.117 1.92 1.92 0 00-1.497.623 1.965 1.965 0 00-.506 1.555v5.615h-1.923v-9.467zM112.267 28.194c-.258 1.719-1.914 2.898-4.033 2.898-2.725 0-4.416-1.845-4.416-4.806 0-2.97 1.7-4.895 4.335-4.895 2.592 0 4.221 1.8 4.221 4.67v.666h-6.615v.117a2.482 2.482 0 00.661 1.916 2.42 2.42 0 001.858.766c.455.043.911-.064 1.3-.304.39-.24.693-.6.864-1.028h1.825zm-6.499-2.826h4.683a2.289 2.289 0 00-.63-1.709 2.244 2.244 0 00-1.668-.694 2.353 2.353 0 00-1.688.7 2.41 2.41 0 00-.697 1.704zM38.232 8.215a2.704 2.704 0 012.178.855 2.766 2.766 0 01.727 2.245c0 1.994-1.066 3.14-2.905 3.14h-2.23v-6.24h2.23zm-1.271 5.357h1.164a1.922 1.922 0 001.546-.632 1.967 1.967 0 00.49-1.612 1.987 1.987 0 00-.498-1.6 1.946 1.946 0 00-1.538-.631h-1.164v4.475zM42.22 12.099a2.253 2.253 0 01.564-1.713 2.207 2.207 0 011.633-.73 2.187 2.187 0 011.633.73 2.236 2.236 0 01.564 1.713 2.255 2.255 0 01-.562 1.715 2.207 2.207 0 01-1.635.732 2.186 2.186 0 01-1.635-.732 2.237 2.237 0 01-.562-1.715zm3.449 0c0-1.021-.454-1.618-1.25-1.618-.8 0-1.25.597-1.25 1.618 0 1.028.45 1.62 1.25 1.62.796 0 1.25-.596 1.25-1.62zM52.455 14.455h-.954l-.963-3.468h-.072l-.96 3.468h-.944l-1.284-4.708h.932l.835 3.593h.069l.958-3.593h.882l.957 3.593h.073l.83-3.593h.92l-1.279 4.708zM54.815 9.747h.885v.748h.068c.117-.269.313-.494.563-.645.249-.15.538-.218.827-.194a1.5 1.5 0 011.223.484 1.536 1.536 0 01.39 1.267v3.048h-.92V11.64c0-.756-.325-1.133-1.005-1.133a1.06 1.06 0 00-.827.339 1.08 1.08 0 00-.285.855v2.754h-.92V9.747zM60.236 7.908h.92v6.547h-.92V7.908zM62.434 12.099a2.251 2.251 0 01.563-1.713 2.207 2.207 0 011.634-.73 2.188 2.188 0 011.633.73 2.236 2.236 0 01.564 1.713 2.255 2.255 0 01-.562 1.715 2.208 2.208 0 01-1.635.732 2.189 2.189 0 01-1.635-.732 2.237 2.237 0 01-.563-1.715zm3.448 0c0-1.02-.454-1.618-1.25-1.618-.8 0-1.249.597-1.249 1.618 0 1.029.45 1.62 1.249 1.62.796 0 1.25-.595 1.25-1.62zM67.796 13.123c0-.847.625-1.336 1.733-1.405l1.262-.074v-.406c0-.497-.325-.778-.954-.778-.513 0-.869.19-.97.523h-.891c.094-.809.847-1.327 1.903-1.327 1.168 0 1.827.587 1.827 1.582v3.217h-.885v-.662h-.073a1.554 1.554 0 01-1.4.74 1.394 1.394 0 01-1.085-.357 1.422 1.422 0 01-.467-1.053zm2.995-.402v-.393l-1.138.073c-.641.043-.932.264-.932.68 0 .423.363.67.864.67a1.087 1.087 0 00.819-.257 1.11 1.11 0 00.387-.773zM72.915 12.098c0-1.487.756-2.43 1.933-2.43.292-.014.58.057.834.203.252.146.46.362.595.623h.069V7.908h.92v6.547h-.882v-.744h-.073c-.146.259-.36.472-.618.617-.258.145-.55.215-.845.204-1.185 0-1.933-.942-1.933-2.434zm.95 0c0 1 .465 1.6 1.244 1.6.775 0 1.254-.61 1.254-1.596 0-.98-.484-1.6-1.254-1.6-.774 0-1.245.606-1.245 1.596zM81.07 12.099a2.253 2.253 0 01.563-1.713 2.207 2.207 0 011.633-.73 2.188 2.188 0 011.633.73 2.236 2.236 0 01.564 1.713 2.251 2.251 0 01-.562 1.715 2.209 2.209 0 01-1.635.732 2.186 2.186 0 01-1.635-.732 2.238 2.238 0 01-.562-1.715zm3.448 0c0-1.021-.454-1.618-1.25-1.618-.8 0-1.249.597-1.249 1.618 0 1.028.45 1.62 1.249 1.62.796 0 1.25-.596 1.25-1.62zM86.697 9.747h.885v.748h.069c.116-.269.313-.494.562-.645.25-.15.539-.218.828-.194a1.5 1.5 0 011.223.484 1.536 1.536 0 01.39 1.267v3.048h-.92V11.64c0-.756-.325-1.133-1.005-1.133a1.06 1.06 0 00-.828.339 1.083 1.083 0 00-.284.855v2.754h-.92V9.747zM95.849 8.574v1.194h1.01v.783h-1.01v2.421c0 .493.201.71.659.71.117-.001.234-.008.35-.022v.774c-.165.03-.332.046-.5.047-1.022 0-1.43-.363-1.43-1.271v-2.66h-.739v-.782h.74V8.574h.92zM98.114 7.908h.911v2.595h.073c.122-.271.324-.498.579-.649.254-.15.548-.219.842-.195a1.52 1.52 0 011.21.497 1.57 1.57 0 01.394 1.26v3.039h-.92v-2.811c0-.752-.347-1.133-.996-1.133a1.077 1.077 0 00-.862.321 1.103 1.103 0 00-.311.873v2.75h-.92V7.908zM107.484 13.184a1.91 1.91 0 01-.764 1.051c-.369.25-.813.36-1.254.311a2.098 2.098 0 01-1.633-.712 2.147 2.147 0 01-.519-1.718 2.196 2.196 0 01.518-1.725 2.13 2.13 0 011.63-.735c1.296 0 2.078.895 2.078 2.373v.325h-3.29v.052a1.264 1.264 0 00.325.951 1.233 1.233 0 00.916.398c.22.026.443-.014.64-.115.197-.102.36-.26.468-.456h.885zm-3.234-1.518h2.353a1.135 1.135 0 00-1.146-1.22 1.187 1.187 0 00-1.119.751c-.06.15-.09.309-.088.47z" fill="#fff"/></svg>