<svg width="136" height="40" fill="none" xmlns="http://www.w3.org/2000/svg"><path d="M130.588 0H5.023C2.249 0 0 2.239 0 5v30c0 2.761 2.249 5 5.023 5h125.565c2.773 0 5.022-2.239 5.022-5V5c0-2.761-2.249-5-5.022-5z" fill="#000"/><path d="M47.635 10.24a2.708 2.708 0 01-.754 2 2.914 2.914 0 01-2.21.88 3.026 3.026 0 01-2.22-.9 3.183 3.183 0 010-4.46 3.18 3.18 0 013.456-.65c.362.148.685.378.944.67l-.532.53a2.007 2.007 0 00-1.648-.72 2.42 2.42 0 00-1.988 1.067 2.393 2.393 0 00.457 3.173 2.415 2.415 0 002.21.468 2.412 2.412 0 001.009-.578c.307-.335.484-.767.502-1.22h-2.19v-.72h2.923c.023.152.037.306.04.46zM52.235 7.74h-2.712v1.9h2.471v.72h-2.471v1.9h2.712V13H48.74V7h3.495v.74zM55.53 13h-.774V7.74H53.07V7h4.189v.74H55.53V13zM60.21 13V7h.774v6h-.773zM64.42 13h-.774V7.74H61.96V7h4.138v.74H64.42V13zM73.943 12.22a3.128 3.128 0 01-2.21.912 3.138 3.138 0 01-2.21-.912 3.232 3.232 0 010-4.44 2.943 2.943 0 012.21-.91 3.026 3.026 0 012.21.91 3.07 3.07 0 01.884 2.22 2.987 2.987 0 01-.884 2.22zm-3.847-.5a2.3 2.3 0 001.637.682 2.31 2.31 0 001.637-.682 2.534 2.534 0 000-3.44 2.3 2.3 0 00-1.637-.681 2.309 2.309 0 00-1.637.681 2.533 2.533 0 000 3.44zM75.922 13V7h.934l2.933 4.67V7h.773v6h-.803l-3.064-4.89V13h-.773z" fill="#fff" stroke="#fff" stroke-width=".2" stroke-miterlimit="10"/><path d="M68.448 21.75a4.292 4.292 0 00-2.376.724 4.264 4.264 0 00-1.571 1.915 4.243 4.243 0 00.938 4.64 4.296 4.296 0 004.666.913 4.274 4.274 0 001.917-1.573A4.246 4.246 0 0072.737 26a4.173 4.173 0 00-1.24-3.03 4.21 4.21 0 00-3.05-1.22zm0 6.83a2.602 2.602 0 01-1.486-.344c-.45-.261-.81-.65-1.033-1.117a2.569 2.569 0 01.44-2.87 2.596 2.596 0 012.844-.645c.484.19.9.519 1.193.946.294.427.451.933.453 1.45a2.45 2.45 0 01-.66 1.796 2.47 2.47 0 01-1.751.784zm-9.362-6.83a4.292 4.292 0 00-2.376.724 4.264 4.264 0 00-1.572 1.915 4.241 4.241 0 00.94 4.64 4.296 4.296 0 004.666.913 4.275 4.275 0 001.916-1.573A4.247 4.247 0 0063.375 26a4.173 4.173 0 00-1.24-3.03 4.21 4.21 0 00-3.05-1.22zm0 6.83a2.602 2.602 0 01-1.486-.344 2.57 2.57 0 01-.593-3.986 2.595 2.595 0 012.843-.646c.485.19.9.519 1.194.946.294.427.451.933.453 1.45a2.449 2.449 0 01-.66 1.796 2.472 2.472 0 01-1.751.784zm-11.13-5.52v1.8h4.34a3.761 3.761 0 01-1.005 2.27 4.441 4.441 0 01-3.355 1.32 4.832 4.832 0 01-3.41-1.406 4.789 4.789 0 010-6.788 4.832 4.832 0 013.41-1.406 4.672 4.672 0 013.294 1.29l1.276-1.27a6.332 6.332 0 00-4.55-1.82 6.668 6.668 0 00-4.861 1.841 6.61 6.61 0 00-2.037 4.764 6.585 6.585 0 002.037 4.764 6.644 6.644 0 004.86 1.841 6.122 6.122 0 004.632-1.85 5.984 5.984 0 001.567-4.23 6.246 6.246 0 00-.09-1.12h-6.108zm45.514 1.4a4.002 4.002 0 00-1.404-1.921 4.03 4.03 0 00-2.252-.789 4.033 4.033 0 00-2.934 1.259A3.996 3.996 0 0085.796 26c-.009.913.28 1.804.822 2.54a4.248 4.248 0 002.186 1.545 4.267 4.267 0 002.68-.065 4.247 4.247 0 002.107-1.65l-1.456-1a2.416 2.416 0 01-2.1 1.17 2.168 2.168 0 01-2.07-1.29l5.716-2.35-.21-.44zm-5.826 1.42a2.33 2.33 0 01.595-1.713 2.35 2.35 0 011.645-.777 1.654 1.654 0 011.578.91l-3.818 1.58zM83.004 30h1.878V17.5h-1.879V30zm-3.074-7.3h-.07a2.952 2.952 0 00-2.25-1 4.288 4.288 0 00-2.892 1.317 4.25 4.25 0 000 5.877 4.288 4.288 0 002.891 1.316 2.906 2.906 0 002.25-1h.07v.61c0 1.63-.873 2.5-2.28 2.5a2.378 2.378 0 01-2.16-1.51l-1.627.67c.301.752.824 1.396 1.5 1.846.677.45 1.474.685 2.287.674 2.2 0 4.018-1.29 4.018-4.43V22H79.93v.7zm-2.16 5.88a2.597 2.597 0 01-1.728-.808 2.573 2.573 0 010-3.534 2.596 2.596 0 011.728-.808 2.41 2.41 0 011.692.802A2.387 2.387 0 0180.06 26a2.368 2.368 0 01-.59 1.778 2.391 2.391 0 01-1.7.802zm24.5-11.08h-4.5V30h1.878v-4.74h2.622a3.924 3.924 0 002.942-1.032 3.887 3.887 0 001.246-2.848 3.88 3.88 0 00-1.246-2.847 3.913 3.913 0 00-2.942-1.033zm0 6h-2.622v-4.26h2.662a2.157 2.157 0 011.52.627 2.133 2.133 0 010 3.026 2.141 2.141 0 01-1.52.627l-.04-.02zm11.592-1.79a3.52 3.52 0 00-1.96.456 3.5 3.5 0 00-1.385 1.454l1.658.69a1.794 1.794 0 011.717-.91 1.816 1.816 0 011.8.931c.115.21.186.441.209.68v.12a4.211 4.211 0 00-1.958-.48c-1.788 0-3.617 1-3.617 2.82a2.9 2.9 0 003.124 2.75 2.673 2.673 0 002.391-1.22h.06v1h1.809v-4.81c0-2.19-1.668-3.46-3.808-3.46l-.04-.02zm-.231 6.85c-.613 0-1.466-.31-1.466-1.06 0-1 1.064-1.34 2.009-1.34a3.345 3.345 0 011.707.42 2.253 2.253 0 01-.728 1.413 2.276 2.276 0 01-1.482.587l-.04-.02zM124.299 22l-2.149 5.42h-.061l-2.23-5.42h-2.009l3.345 7.58-1.908 4.21h1.958L126.389 22h-2.09zm-16.876 8h1.869V17.5h-1.869V30z" fill="#fff"/><path d="M10.487 7.54c-.33.39-.5.89-.472 1.4v22.12c-.034.51.136 1.014.472 1.4l.07.08 12.446-12.39v-.3L10.557 7.47l-.07.07z" fill="url(#paint0_linear)"/><path d="M27.122 24.28l-4.118-4.13v-.3l4.118-4.13.09.06 4.933 2.78c1.406.79 1.406 2.09 0 2.89l-4.912 2.78-.11.05z" fill="url(#paint1_linear)"/><path d="M27.242 24.22L23.003 20 10.487 32.46a1.63 1.63 0 002.08.07l14.675-8.31z" fill="url(#paint2_linear)"/><path d="M27.242 15.78l-14.676-8.3a1.622 1.622 0 00-2.079.06L23.003 20l4.24-4.22z" fill="url(#paint3_linear)"/><path opacity=".2" d="M27.122 24.13l-14.556 8.25a1.672 1.672 0 01-2.009 0l-.07.07.07.08a1.672 1.672 0 002.01 0l14.675-8.31-.12-.09z" fill="#000"/><path opacity=".12" d="M10.487 32.32a1.994 1.994 0 01-.442-1.41v.15c-.034.51.136 1.014.472 1.4l.07-.07-.1-.07zM32.145 21.3l-5.023 2.83.09.09 4.933-2.78A1.757 1.757 0 0033.209 20a1.856 1.856 0 01-1.064 1.3z" fill="#000"/><path opacity=".25" d="M12.567 7.62L32.145 18.7a1.867 1.867 0 011.064 1.3 1.745 1.745 0 00-1.064-1.44L12.567 7.48c-1.397-.8-2.552-.14-2.552 1.46v.15c.03-1.6 1.155-2.26 2.552-1.47z" fill="#fff"/><defs><linearGradient id="paint0_linear" x1="21.898" y1="8.71" x2="5.119" y2="25.566" gradientUnits="userSpaceOnUse"><stop stop-color="#00A0FF"/><stop offset=".01" stop-color="#00A1FF"/><stop offset=".26" stop-color="#00BEFF"/><stop offset=".51" stop-color="#00D2FF"/><stop offset=".76" stop-color="#00DFFF"/><stop offset="1" stop-color="#00E3FF"/></linearGradient><linearGradient id="paint1_linear" x1="33.983" y1="20" x2="9.684" y2="20" gradientUnits="userSpaceOnUse"><stop stop-color="#FFE000"/><stop offset=".41" stop-color="#FFBD00"/><stop offset=".78" stop-color="orange"/><stop offset="1" stop-color="#FF9C00"/></linearGradient><linearGradient id="paint2_linear" x1="24.942" y1="22.3" x2="2.182" y2="45.153" gradientUnits="userSpaceOnUse"><stop stop-color="#FF3A44"/><stop offset="1" stop-color="#C31162"/></linearGradient><linearGradient id="paint3_linear" x1="7.333" y1=".18" x2="17.493" y2="10.386" gradientUnits="userSpaceOnUse"><stop stop-color="#32A071"/><stop offset=".07" stop-color="#2DA771"/><stop offset=".48" stop-color="#15CF74"/><stop offset=".8" stop-color="#06E775"/><stop offset="1" stop-color="#00F076"/></linearGradient></defs></svg>